HIERARCHY
ROOT hip
{
	OFFSET 0.000000 0.000000 0.000000 
	CHANNELS 6 Xposition Yposition Zposition Xrotation Zrotation Yrotation
	JOINT abdomen
	{
		OFFSET 0.000000 3.402643 0.000000 
		CHANNELS 3 Xrotation Zrotation Yrotation
		JOINT chest
		{
			OFFSET 0.000000 8.438565 -0.680529 
			CHANNELS 3 Xrotation Zrotation Yrotation
			JOINT neck
			{
				OFFSET 0.000000 10.207942 -0.272212 
				CHANNELS 3 Xrotation Zrotation Yrotation
				JOINT head
				{
					OFFSET 0.000000 3.130431 0.000000 
					CHANNELS 3 Xrotation Zrotation Yrotation
					End Site
					{
						OFFSET 0.000000 3.130435 0.000000 
					}
				}
			}
			JOINT lCollar
			{
				OFFSET 3.470700 6.669187 -0.816635 
				CHANNELS 3 Yrotation Zrotation Xrotation
				JOINT lShldr
				{
					OFFSET 3.198488 0.000000 0.000000 
					CHANNELS 3 Zrotation Yrotation Xrotation
					JOINT lForeArm
					{
						OFFSET 10.139888 0.000000 0.000000 
						CHANNELS 3 Yrotation Zrotation Xrotation
						JOINT lHand
						{
							OFFSET 8.370511 0.000000 0.000000 
							CHANNELS 3 Zrotation Yrotation Xrotation
							End Site
							{
								OFFSET 4.083176 0.000000 0.000000 
							}
						}
					}
				}
			}
			JOINT rCollar
			{
				OFFSET -3.470700 6.669187 -0.816635 
				CHANNELS 3 Yrotation Zrotation Xrotation
				JOINT rShldr
				{
					OFFSET -3.198488 0.000000 0.000000 
					CHANNELS 3 Zrotation Yrotation Xrotation
					JOINT rForeArm
					{
						OFFSET -10.139888 0.000000 0.000000 
						CHANNELS 3 Yrotation Zrotation Xrotation
						JOINT rHand
						{
							OFFSET -8.370511 0.000000 0.000000 
							CHANNELS 3 Zrotation Yrotation Xrotation
							End Site
							{
								OFFSET -4.083176 0.000000 0.000000 
							}
						}
					}
				}
			}
		}
	}
	JOINT lThigh
	{
		OFFSET 5.308129 -1.633274 1.361059 
		CHANNELS 3 Xrotation Zrotation Yrotation
		JOINT lShin
		{
			OFFSET -2.041588 -20.007561 0.000000 
			CHANNELS 3 Xrotation Zrotation Yrotation
			JOINT lFoot
			{
				OFFSET 0.000000 -19.190928 -1.224953 
				CHANNELS 3 Xrotation Yrotation Zrotation
				End Site
				{
					OFFSET 0.000000 -2.449906 4.627600 
				}
			}
		}
	}
	JOINT rThigh
	{
		OFFSET -5.308129 -1.633274 1.361059 
		CHANNELS 3 Xrotation Zrotation Yrotation
		JOINT rShin
		{
			OFFSET 2.041588 -20.007561 0.000000 
			CHANNELS 3 Xrotation Zrotation Yrotation
			JOINT rFoot
			{
				OFFSET 0.000000 -19.190928 -1.224953 
				CHANNELS 3 Xrotation Yrotation Zrotation
				End Site
				{
					OFFSET 0.000000 -2.449906 4.627600 
				}
			}
		}
	}
}
MOTION
Frames: 8
Frame Time: 0.016667
0.579179 52.962349 0.771083 -13.277574 0.816224 5.723325 19.674435 2.934468 -1.452755 4.456423 1.775769 -3.672833 4.532474 6.171953 0.195927 17.433851 -5.375803 7.336427 -18.979628 -16.883638 -0.894710 -65.141975 12.274792 -28.445503 -53.888275 -5.000000 12.958891 15.743950 -30.000000 45.000000 17.250547 14.231201 -0.749763 53.242474 1.730715 -2.559361 98.804268 5.000000 -6.342565 14.397201 -30.000000 -28.699297 19.124514 14.410855 2.988369 8.100620 -4.871654 -0.837604 -12.632608 7.339638 -4.457708 25.233414 -7.305192 -9.279279 -0.544657 3.772369 0.059605 -8.219670 -16.813520 6.354550 
0.579179 52.962334 0.762251 -13.249249 0.806507 5.723325 19.674206 2.943652 -1.449186 4.436589 1.775756 -3.682595 4.522641 6.152642 0.198846 17.423166 -5.375686 7.346150 -18.972666 -16.880463 -0.903547 -65.123383 12.280850 -28.398760 -53.857903 -5.000000 12.968063 15.659332 -30.000000 45.000000 17.240517 14.211699 -0.748753 53.261646 1.746966 -2.521857 98.799156 5.000000 -6.334803 14.429173 -30.000000 -28.721718 19.086493 14.411816 2.986104 8.092955 -4.884483 -0.837481 -12.591841 7.370442 -4.476551 25.207987 -7.293912 -9.326555 -0.575437 3.757487 0.038336 -8.172517 -16.784525 6.331607 
0.579126 52.962982 0.753431 -13.219954 0.806507 5.723325 19.664116 2.943620 -1.449361 4.416755 1.775743 -3.692356 4.492304 6.151192 0.189244 17.423166 -5.375686 7.346150 -18.982269 -16.870712 -0.903044 -65.115845 12.286326 -28.362686 -53.841843 -5.000000 12.963345 15.569638 -30.000000 45.000000 17.220726 14.192195 -0.747743 53.290852 1.757819 -2.491600 98.766670 5.000000 -6.294954 14.469996 -30.000000 -28.741251 19.041096 14.422870 2.995249 8.100212 -4.890983 -0.848367 -12.555018 7.388605 -4.491257 25.191694 -7.284770 -9.363629 -0.623485 3.739712 0.025535 -8.138267 -16.732248 6.337749 
0.578960 52.964451 0.744691 -13.191902 0.796817 5.703794 19.654346 2.943576 -1.449498 4.406990 1.775743 -3.672824 4.453272 6.160848 0.187785 17.455219 -5.376040 7.316985 -19.011242 -16.851204 -0.902036 -65.097267 12.292351 -28.315939 -53.825302 -5.000000 12.948934 15.488019 -30.000000 45.000000 17.200798 14.162940 -0.746229 53.320313 1.762848 -2.469191 98.732491 5.000000 -6.259813 14.529619 -30.000000 -28.762882 19.006819 14.419566 3.023669 8.082181 -4.901573 -0.857080 -12.557849 7.378788 -4.485697 25.159353 -7.293795 -9.396709 -0.652916 3.745096 0.042864 -8.070498 -16.677839 6.350561 
0.579231 52.965725 0.735549 -13.172507 0.796831 5.694029 19.644342 2.952673 -1.446206 4.406575 1.785500 -3.663058 4.424008 6.170503 0.186325 17.478752 -5.366704 7.287819 -19.040379 -16.841448 -0.901533 -65.087883 12.284877 -28.275377 -53.808998 -5.000000 12.936012 15.406878 -30.000000 45.000000 17.181004 14.143435 -0.745219 53.339085 1.781061 -2.445010 98.683990 5.000000 -6.212168 14.573798 -30.000000 -28.779726 18.973734 14.414361 3.039021 8.092752 -4.921111 -0.878381 -12.532500 7.363394 -4.494040 25.145769 -7.275516 -9.430820 -0.680741 3.730728 0.060671 -8.023388 -16.683363 6.354730 
0.580414 52.966221 0.725695 -13.145414 0.777422 5.674365 19.643398 2.959595 -1.464444 4.396809 1.785500 -3.663058 4.383841 6.149742 0.178596 17.481241 -5.347331 7.286910 -19.040216 -16.831696 -0.901030 -65.071953 12.286099 -28.243399 -53.799118 -5.000000 12.943898 15.357846 -30.000000 45.000000 17.180742 14.123932 -0.744209 53.367878 1.793884 -2.428374 98.651939 5.000000 -6.181910 14.595136 -30.000000 -28.814276 18.931055 14.421612 3.049127 8.092510 -4.921510 -0.878404 -12.524546 7.368112 -4.535975 25.116148 -7.275404 -9.460933 -0.720039 3.723135 0.048334 -7.986669 -16.615170 6.348989 
0.581908 52.966572 0.715425 -13.117344 0.767730 5.654835 19.632765 2.975599 -1.479363 4.397418 1.785525 -3.653302 4.354483 6.130431 0.181517 17.484638 -5.328073 7.277189 -19.040216 -16.831696 -0.901030 -65.056412 12.278461 -28.213467 -53.779354 -5.000000 12.959681 15.325203 -30.000000 45.000000 17.180483 14.104428 -0.743199 53.386913 1.806280 -2.412033 98.605637 5.000000 -6.155091 14.595412 -30.000000 -28.830935 18.908316 14.419450 3.078068 8.088350 -4.928830 -0.869059 -12.544035 7.372015 -4.533046 25.103439 -7.255813 -9.505465 -0.770224 3.693694 0.065138 -7.946237 -16.535069 6.337233 
0.582465 52.967751 0.705259 -13.090354 0.748332 5.625539 19.633240 2.972139 -1.470243 4.387653 1.785526 -3.653302 4.334951 6.130431 0.181517 17.483728 -5.327957 7.286910 -19.049820 -16.821941 -0.900527 -65.040482 12.279655 -28.181498 -53.769238 -5.000000 12.966055 15.285019 -30.000000 45.000000 17.180222 14.084925 -0.742189 53.396633 1.816201 -2.382344 98.589706 5.000000 -6.141533 14.610971 -30.000000 -28.849031 18.885540 14.433579 3.098517 8.081050 -4.940037 -0.888333 -12.520609 7.411842 -4.546049 25.073084 -7.255630 -9.515608 -0.800181 3.697339 0.062986 -7.921902 -16.498884 6.334536 
